<svg width="140" height="123" viewBox="0 0 140 123" fill="none" xmlns="http://www.w3.org/2000/svg">
<g clip-path="url(#clip0_5_77)">
<path d="M0.020425 109.188C0.0325637 109.24 0.0492805 109.29 0.070398 109.338C0.0758401 109.37 0.0859484 109.4 0.100388 109.428L7.37824 122.046L7.40823 122.076C7.42837 122.108 7.45183 122.138 7.47822 122.166C7.51821 122.206 7.55819 122.236 7.59818 122.276C7.62817 122.296 7.63817 122.326 7.66817 122.336C7.6799 122.344 7.69404 122.347 7.70813 122.346C7.81668 122.401 7.93619 122.432 8.05803 122.436H131.892C132.013 122.432 132.133 122.401 132.241 122.346C132.271 122.326 132.291 122.306 132.321 122.286C132.402 122.235 132.471 122.167 132.521 122.086C132.531 122.066 132.551 122.056 132.571 122.036L139.859 109.418C139.869 109.408 139.869 109.388 139.879 109.378C139.898 109.348 139.912 109.314 139.919 109.278C139.929 109.248 139.939 109.208 139.949 109.178C139.957 109.146 139.961 109.112 139.959 109.078C139.959 109.058 139.969 109.048 139.969 109.028C139.969 109.008 139.959 108.998 139.959 108.979C139.959 108.959 139.949 108.909 139.949 108.879C139.949 108.849 139.929 108.809 139.919 108.779C139.908 108.744 139.895 108.711 139.879 108.679C139.869 108.669 139.869 108.649 139.859 108.639L77.9474 1.38992C77.93 1.36453 77.9099 1.34107 77.8875 1.31994C77.8562 1.27534 77.8192 1.23501 77.7775 1.19996C77.6991 1.14223 77.6154 1.09202 77.5276 1.04999C77.4755 1.03428 77.4219 1.02422 77.3676 1.02C77.3376 1.02 77.3076 1 77.2677 1H62.7019C62.6819 1 62.672 1.01 62.652 1.01C62.632 1.01 62.582 1.02 62.552 1.02L62.442 1.04999C62.4077 1.06069 62.3743 1.07407 62.3421 1.08998C62.3303 1.09793 62.3162 1.10148 62.3021 1.09998C62.2907 1.11233 62.2771 1.12249 62.2621 1.12997C62.2337 1.14752 62.2069 1.1676 62.1821 1.18996C62.153 1.21404 62.1262 1.24082 62.1021 1.26995C62.0821 1.29994 62.0621 1.31994 62.0421 1.34993C62.0298 1.36132 62.0196 1.37488 62.0121 1.38992L0.0903812 108.649C0.0759416 108.677 0.0658333 108.707 0.0603912 108.739C0.0392585 108.787 0.0225413 108.837 0.0104182 108.889C0.00211188 108.938 -0.00124679 108.988 0.000411342 109.038C0.0104084 109.088 0.0104279 109.138 0.020425 109.188ZM76.8178 2.56969L137.83 108.249H31.2812L37.6593 97.2108H117.346C117.469 97.2098 117.59 97.1753 117.696 97.1109C117.706 97.1009 117.726 97.1109 117.736 97.1009C117.761 97.0834 117.785 97.0633 117.806 97.0409C117.848 97.007 117.888 96.9702 117.926 96.9309C117.956 96.8933 117.983 96.8531 118.006 96.8109C118.036 96.7729 118.056 96.7284 118.066 96.6809C118.086 96.6301 118.096 96.5758 118.096 96.521C118.096 96.491 118.116 96.461 118.116 96.421C118.116 96.401 118.106 96.391 118.106 96.371C118.1 96.3202 118.09 96.27 118.076 96.221C118.063 96.1697 118.047 96.1195 118.026 96.0711C118.016 96.0611 118.016 96.0411 118.006 96.0311L64.0515 2.56969H76.8178ZM131.452 120.866H9.42763L62.7019 28.5845L69.0801 39.6223L29.2318 108.639C29.2238 108.65 29.2203 108.664 29.2218 108.679C29.2007 108.727 29.1839 108.777 29.1718 108.829C29.157 108.877 29.147 108.928 29.1418 108.979C29.1418 108.998 29.1318 109.008 29.1318 109.028C29.1318 109.048 29.1518 109.088 29.1518 109.128C29.157 109.183 29.167 109.236 29.1818 109.288C29.2018 109.338 29.2218 109.378 29.2418 109.418C29.2661 109.46 29.2928 109.5 29.3218 109.538C29.3618 109.578 29.4018 109.608 29.4417 109.648C29.4717 109.668 29.4817 109.698 29.5117 109.708C29.5217 109.718 29.5417 109.708 29.5517 109.718C29.6596 109.777 29.779 109.811 29.9016 109.818H137.81L131.452 120.866ZM101.411 95.6412H38.5591L69.9898 41.202L101.411 95.6412ZM62.7019 3.35953L115.976 95.6412H103.23L63.3917 26.6249C63.3794 26.6135 63.3692 26.6 63.3617 26.5849C63.3318 26.5449 63.2918 26.5049 63.2618 26.4649C63.2265 26.4264 63.1861 26.3927 63.1418 26.3649C63.1304 26.3526 63.1169 26.3424 63.1018 26.335C63.0735 26.3205 63.0432 26.3104 63.0118 26.305C62.9635 26.2838 62.9133 26.2671 62.8619 26.255C62.7624 26.2416 62.6615 26.2416 62.562 26.255C62.5106 26.2671 62.4604 26.2838 62.412 26.305C62.3807 26.3104 62.3504 26.3205 62.322 26.335C62.3107 26.3473 62.2971 26.3575 62.2821 26.3649C62.2421 26.3949 62.2021 26.4349 62.1621 26.4649C62.1208 26.4975 62.0868 26.5384 62.0621 26.5849C62.0498 26.5963 62.0396 26.6099 62.0322 26.6249L8.07805 120.086L1.69992 109.048L62.7019 3.35953Z" fill="white"/>
</g>
<defs>
<clipPath id="clip0_5_77">
<rect width="139.969" height="121.438" fill="white" transform="translate(0 0.59375)"/>
</clipPath>
</defs>
</svg>
